<svg width="512" height="342" viewBox="0 0 512 342" fill="none" xmlns="http://www.w3.org/2000/svg">
<path d="M512 0H0V342H512V0Z" fill="#14151A"/>
<path d="M97.0031 251.088V250.943C97.0031 244.133 93.3894 240.727 87.5352 238.481C91.1489 236.452 94.1844 233.264 94.1844 227.54V227.395C94.1844 219.425 87.8243 214.28 77.4891 214.28H54V265H78.0673C89.4866 265 97.0031 260.363 97.0031 251.088ZM83.1265 229.424C83.1265 233.192 80.0187 234.786 75.104 234.786H64.8411V224.062H75.8268C80.5246 224.062 83.1265 225.946 83.1265 229.279V229.424ZM85.9452 249.712C85.9452 253.479 82.9819 255.218 78.0673 255.218H64.8411V244.06H77.7059C83.4156 244.06 85.9452 246.161 85.9452 249.567V249.712Z" fill="#F0B90B"/>
<path d="M151.113 265V214.28H140.128V245.509L116.422 214.28H106.159V265H117.144V232.757L141.645 265H151.113Z" fill="#F0B90B"/>
<path d="M206.261 251.088V250.943C206.261 244.133 202.648 240.727 196.793 238.481C200.407 236.452 203.443 233.264 203.443 227.54V227.395C203.443 219.425 197.082 214.28 186.747 214.28H163.258V265H187.325C198.745 265 206.261 260.363 206.261 251.088ZM192.385 229.424C192.385 233.192 189.277 234.786 184.362 234.786H174.099V224.062H185.085C189.783 224.062 192.385 225.946 192.385 229.279V229.424ZM195.203 249.712C195.203 253.479 192.24 255.218 187.325 255.218H174.099V244.06H186.964C192.674 244.06 195.203 246.161 195.203 249.567V249.712Z" fill="#F0B90B"/>
<path d="M269.471 255.406L263.757 249.652C259.417 253.68 255.439 256.197 249.218 256.197C239.526 256.197 232.51 248.142 232.51 238.216C232.51 228.291 239.526 220.379 249.218 220.379C255.005 220.379 259.345 222.897 263.395 226.637L269.109 220.092C264.263 215.489 258.621 212.252 249.291 212.252C233.957 212.252 223.179 223.976 223.179 238.36C223.179 252.889 234.174 264.324 248.929 264.324C258.404 264.324 264.191 260.872 269.471 255.406Z" fill="#F0B90B"/>
<path d="M311.877 242.244V263.461H320.774V213.115H311.877V234.045H287.719V213.115H278.822V263.461H287.719V242.244H311.877Z" fill="#F0B90B"/>
<path d="M359.961 212.756H351.715L329.437 263.461H338.551L343.759 251.306H367.7L372.836 263.461H382.239L359.961 212.756ZM364.445 243.467H347.013L355.693 223.328L364.445 243.467Z" fill="#F0B90B"/>
<path d="M391.428 213.115V263.461H400.324V213.115H391.428Z" fill="#F0B90B"/>
<path d="M449.248 247.926L422.124 213.115H413.878V263.461H422.63V227.644L450.55 263.461H458V213.115H449.248V247.926Z" fill="#F0B90B"/>
<path d="M229.014 92.6646L256.042 77L283.07 92.6646L273.133 98.4515L256.042 88.5738L238.95 98.4515L229.014 92.6646ZM283.07 112.42L273.133 106.633L256.042 116.511L238.95 106.633L229.014 112.42V123.994L246.105 133.871V153.627L256.042 159.414L265.979 153.627V133.871L283.07 123.994V112.42ZM283.07 143.749V132.175L273.133 137.962V149.536L283.07 143.749ZM290.125 147.84L273.034 157.717V169.291L300.062 153.627V122.298L290.125 128.084V147.84ZM280.188 102.542L290.125 108.329V119.903L300.062 114.116V102.542L290.125 96.7553L280.188 102.542ZM246.105 161.908V173.482L256.042 179.269L265.979 173.482V161.908L256.042 167.695L246.105 161.908ZM229.014 143.749L238.95 149.536V137.962L229.014 132.175V143.749ZM246.105 102.542L256.042 108.329L265.979 102.542L256.042 96.7553L246.105 102.542ZM221.958 108.329L231.895 102.542L221.958 96.7553L212.021 102.542V114.116L221.958 119.903V108.329ZM221.958 128.084L212.021 122.298V153.627L239.05 169.291V157.717L221.958 147.84V128.084Z" fill="#F0B90B"/>
</svg>
