<svg width="637" height="231" viewBox="0 0 637 231" fill="none" xmlns="http://www.w3.org/2000/svg">
<path d="M637 0H0V231H637V0Z" fill="#14151A"/>
<path d="M79.8859 84.479L103.564 71L127.242 84.479L118.537 89.4585L103.564 80.959L88.5911 89.4585L79.8859 84.479ZM127.242 101.478L118.537 96.4985L103.564 104.998L88.5911 96.4985L79.8859 101.478V111.437L94.8588 119.937V136.936L103.564 141.915L112.269 136.936V119.937L127.242 111.437V101.478ZM127.242 128.436V118.477L118.537 123.457V133.416L127.242 128.436ZM133.423 131.956L118.45 140.456V150.415L142.128 136.936V109.978L133.423 114.957V131.956ZM124.718 92.9785L133.423 97.958V107.917L142.128 102.938V92.9785L133.423 87.999L124.718 92.9785ZM94.8588 144.061V154.02L103.564 159L112.269 154.02V144.061L103.564 149.041L94.8588 144.061ZM79.8859 128.436L88.5911 133.416V123.457L79.8859 118.477V128.436ZM94.8588 92.9785L103.564 97.958L112.269 92.9785L103.564 87.999L94.8588 92.9785ZM73.7052 97.958L82.4104 92.9785L73.7052 87.999L65 92.9785V102.938L73.7052 107.917V97.958ZM73.7052 114.957L65 109.978V136.936L88.678 150.415V140.456L73.7052 131.956V114.957Z" fill="#F0B90B"/>
<path d="M210.757 126.226V126.086C210.757 119.509 207.21 116.221 201.464 114.052C205.011 112.093 207.991 109.015 207.991 103.487V103.347C207.991 95.6515 201.748 90.6841 191.604 90.6841H168.548V139.659H192.171C203.38 139.659 210.757 135.181 210.757 126.226ZM197.137 105.306C197.137 108.945 194.086 110.484 189.263 110.484H179.189V100.129H189.972C194.583 100.129 197.137 101.948 197.137 105.167V105.306ZM199.904 124.896C199.904 128.534 196.995 130.214 192.171 130.214H179.189V119.439H191.816C197.421 119.439 199.904 121.468 199.904 124.756V124.896Z" fill="#F0B90B"/>
<path d="M264.578 139.659V90.6841H253.795V120.838L230.527 90.6841H220.453V139.659H231.236V108.525L255.285 139.659H264.578Z" fill="#F0B90B"/>
<path d="M319.418 126.226V126.086C319.418 119.509 315.871 116.221 310.124 114.052C313.671 112.093 316.651 109.015 316.651 103.487V103.347C316.651 95.6515 310.408 90.6841 300.264 90.6841H277.208V139.659H300.831C312.04 139.659 319.418 135.181 319.418 126.226ZM305.797 105.306C305.797 108.945 302.747 110.484 297.923 110.484H287.849V100.129H298.632C303.243 100.129 305.797 101.948 305.797 105.167V105.306ZM308.564 124.896C308.564 128.534 305.655 130.214 300.831 130.214H287.849V119.439H300.477C306.081 119.439 308.564 121.468 308.564 124.756V124.896Z" fill="#F0B90B"/>
<path d="M385.259 131.007L379.655 125.41C375.399 129.328 371.497 131.777 365.396 131.777C355.89 131.777 349.009 123.941 349.009 114.286C349.009 104.631 355.89 96.9349 365.396 96.9349C371.071 96.9349 375.328 99.3837 379.3 103.022L384.905 96.6551C380.152 92.1774 374.618 89.0291 365.467 89.0291C350.428 89.0291 339.858 100.433 339.858 114.426C339.858 128.558 350.641 139.683 365.112 139.683C374.405 139.683 380.081 136.324 385.259 131.007Z" fill="#F0B90B"/>
<path d="M427.559 118.204V138.843H436.285V89.8686H427.559V110.228H403.865V89.8686H395.14V138.843H403.865V118.204H427.559Z" fill="#F0B90B"/>
<path d="M475.427 89.5188H467.34L445.491 138.843H454.429L459.537 127.019H483.018L488.055 138.843H497.277L475.427 89.5188ZM479.826 119.393H462.729L471.242 99.8034L479.826 119.393Z" fill="#F0B90B"/>
<path d="M506.998 89.8686V138.843H515.724V89.8686H506.998Z" fill="#F0B90B"/>
<path d="M564.416 123.731L537.814 89.8686H529.726V138.843H538.31V104.001L565.693 138.843H573V89.8686H564.416V123.731Z" fill="#F0B90B"/>
</svg>
