<svg width="924" height="431" viewBox="0 0 924 431" fill="none" xmlns="http://www.w3.org/2000/svg">
<path d="M98.3063 398.239V397.908C98.3063 382.327 90.0452 374.537 76.6624 369.399C84.9234 364.758 91.8627 357.465 91.8627 344.371V344.039C91.8627 325.807 77.3232 314.039 53.6967 314.039H0V430.063H55.0185C81.1233 430.063 98.3063 419.455 98.3063 398.239ZM66.5839 348.68C66.5839 357.299 59.4794 360.946 48.2444 360.946H24.7831V336.415H49.8966C60.636 336.415 66.5839 340.724 66.5839 348.349V348.68ZM73.0275 395.09C73.0275 403.709 66.2535 407.687 55.0185 407.687H24.7831V382.161H54.1924C67.2448 382.161 73.0275 386.968 73.0275 394.758V395.09Z" fill="#0B0E11"/>
<path d="M222.004 430.063V314.039H196.89V385.476L142.698 314.039H119.236V430.063H144.35V356.305L200.36 430.063H222.004Z" fill="#0B0E11"/>
<path d="M348.073 398.239V397.908C348.073 382.327 339.812 374.537 326.429 369.399C334.69 364.758 341.63 357.465 341.63 344.371V344.039C341.63 325.807 327.09 314.039 303.464 314.039H249.767V430.063H304.786C330.89 430.063 348.073 419.455 348.073 398.239ZM316.351 348.68C316.351 357.299 309.247 360.946 298.012 360.946H274.55V336.415H299.664C310.403 336.415 316.351 340.724 316.351 348.349V348.68ZM322.795 395.09C322.795 403.709 316.021 407.687 304.786 407.687H274.55V382.161H303.959C317.012 382.161 322.795 386.968 322.795 394.758V395.09Z" fill="#0B0E11"/>
<path d="M492.573 408.116L479.51 394.953C469.589 404.167 460.495 409.926 446.275 409.926C424.118 409.926 408.079 391.498 408.079 368.793C408.079 346.089 424.118 327.99 446.275 327.99C459.503 327.99 469.424 333.749 478.683 342.304L491.746 327.332C480.668 316.803 467.77 309.399 446.44 309.399C411.386 309.399 386.748 336.217 386.748 369.123C386.748 402.357 411.882 428.517 445.613 428.517C467.274 428.517 480.502 420.62 492.573 408.116Z" fill="#0B0E11"/>
<path d="M589.515 378.007V426.543H609.853V311.373H589.515V359.251H534.288V311.373H513.95V426.543H534.288V378.007H589.515Z" fill="#0B0E11"/>
<path d="M699.435 310.55H680.585L629.657 426.543H650.491L662.396 398.738H717.127L728.867 426.543H750.363L699.435 310.55ZM709.686 380.804H669.837L689.679 334.736L709.686 380.804Z" fill="#0B0E11"/>
<path d="M771.369 311.373V426.543H791.707V311.373H771.369Z" fill="#0B0E11"/>
<path d="M903.547 391.005L841.541 311.373H822.691V426.543H842.698V344.608L906.524 426.543H923.555V311.373H903.547V391.005Z" fill="#0B0E11"/>
<path d="M400.085 35.8338L461.873 0L523.66 35.8338L500.944 49.0717L461.873 26.4759L422.801 49.0717L400.085 35.8338ZM523.66 81.0254L500.944 67.7875L461.873 90.3833L422.801 67.7875L400.085 81.0254V107.501L439.157 130.097V175.289L461.873 188.527L484.588 175.289V130.097L523.66 107.501V81.0254ZM523.66 152.693V126.217L500.944 139.455V165.931L523.66 152.693ZM539.788 162.051L500.717 184.647V211.123L562.504 175.289V103.621L539.788 116.859V162.051ZM517.072 58.4296L539.788 71.6675V98.1435L562.504 84.9055V58.4296L539.788 45.1917L517.072 58.4296ZM439.157 194.233V220.709L461.873 233.947L484.588 220.709V194.233L461.873 207.471L439.157 194.233ZM400.085 152.693L422.801 165.931V139.455L400.085 126.217V152.693ZM439.157 58.4296L461.873 71.6675L484.588 58.4296L461.873 45.1917L439.157 58.4296ZM383.957 71.6675L406.673 58.4296L383.957 45.1917L361.241 58.4296V84.9055L383.957 98.1435V71.6675ZM383.957 116.859L361.241 103.621V175.289L423.028 211.123V184.647L383.957 162.051V116.859Z" fill="#0B0E11"/>
</svg>
