<svg width="1004" height="177" viewBox="0 0 1004 177" fill="none" xmlns="http://www.w3.org/2000/svg">
<path d="M29.4155 27.0071L76.2048 0L122.994 27.0071L105.792 36.9842L76.2048 19.9543L46.6175 36.9842L29.4155 27.0071ZM122.994 61.0669L105.792 51.0898L76.2048 68.1198L46.6175 51.0898L29.4155 61.0669V81.0212L59.0028 98.0512V132.111L76.2048 142.088L93.4067 132.111V98.0512L122.994 81.0212V61.0669ZM122.994 115.081V95.1268L105.792 105.104V125.058L122.994 115.081ZM135.208 122.134L105.62 139.164V159.118L152.41 132.111V78.0969L135.208 88.074V122.134ZM118.006 44.037L135.208 54.0141V73.9684L152.41 63.9913V44.037L135.208 34.0599L118.006 44.037ZM59.0028 146.389V166.343L76.2048 176.32L93.4067 166.343V146.389L76.2048 156.366L59.0028 146.389ZM29.4155 115.081L46.6175 125.058V105.104L29.4155 95.1268V115.081ZM59.0028 44.037L76.2048 54.0141L93.4067 44.037L76.2048 34.0599L59.0028 44.037ZM17.202 54.0141L34.4039 44.037L17.202 34.0599L0 44.037V63.9913L17.202 73.9684V54.0141ZM17.202 88.074L0 78.0969V132.111L46.7892 159.118V139.164L17.202 122.134V88.074Z" fill="#F0B90B"/>
<path d="M288.026 110.652V110.372C288.026 97.1946 281.016 90.6061 269.662 86.2604C276.671 82.3354 282.558 76.1674 282.558 65.093V64.8126C282.558 49.3927 270.222 39.4398 250.176 39.4398H204.617V137.567H251.298C273.447 137.567 288.026 128.595 288.026 110.652ZM261.111 68.7377C261.111 76.0272 255.083 79.1112 245.55 79.1112H225.645V58.3643H246.952C256.064 58.3643 261.111 62.009 261.111 68.4574V68.7377ZM266.578 107.989C266.578 115.278 260.83 118.642 251.298 118.642H225.645V97.0544H250.597C261.671 97.0544 266.578 101.12 266.578 107.708V107.989Z" fill="#F0B90B"/>
<path d="M394.379 137.567V39.4398H373.071V99.8581L327.091 39.4398H307.186V137.567H328.493V75.1861L376.015 137.567H394.379Z" fill="#F0B90B"/>
<path d="M502.744 110.652V110.372C502.744 97.1946 495.735 90.6061 484.381 86.2604C491.39 82.3354 497.277 76.1674 497.277 65.093V64.8126C497.277 49.3927 484.941 39.4398 464.895 39.4398H419.336V137.567H466.017C488.166 137.567 502.744 128.595 502.744 110.652ZM475.83 68.7377C475.83 76.0272 469.802 79.1112 460.269 79.1112H440.364V58.3643H461.671C470.783 58.3643 475.83 62.009 475.83 68.4574V68.7377ZM481.297 107.989C481.297 115.278 475.549 118.642 466.017 118.642H440.364V97.0544H465.316C476.39 97.0544 481.297 101.12 481.297 107.708V107.989Z" fill="#F0B90B"/>
<path d="M632.852 120.233L621.778 109.018C613.367 116.868 605.657 121.775 593.601 121.775C574.817 121.775 561.219 106.074 561.219 86.7293C561.219 67.3842 574.817 51.9642 593.601 51.9642C604.816 51.9642 613.227 56.8706 621.077 64.16L632.151 51.4035C622.759 42.4318 611.825 36.1237 593.741 36.1237C564.023 36.1237 543.136 58.9733 543.136 87.0096C543.136 115.326 564.443 137.615 593.04 137.615C611.404 137.615 622.619 130.886 632.852 120.233Z" fill="#F0B90B"/>
<path d="M716.44 94.5794V135.933H733.682V37.8058H716.44V78.5987H669.619V37.8058H652.377V135.933H669.619V94.5794H716.44Z" fill="#F0B90B"/>
<path d="M811.03 37.1049H795.049L751.873 135.933H769.536L779.629 112.242H826.029L835.982 135.933H854.206L811.03 37.1049ZM819.721 96.9625H785.937L802.759 57.7116L819.721 96.9625Z" fill="#F0B90B"/>
<path d="M873.416 37.8058V135.933H890.658V37.8058H873.416Z" fill="#F0B90B"/>
<path d="M986.877 105.654L934.308 37.8058H918.328V135.933H935.29V66.1225L989.4 135.933H1003.84V37.8058H986.877V105.654Z" fill="#F0B90B"/>
</svg>
