<svg width="1200" height="1200" viewBox="0 0 1200 1200" fill="none" xmlns="http://www.w3.org/2000/svg">
<rect width="1200" height="1200" fill="#FDB900"/>
<path d="M183.028 746.725L182.961 722.027L244.105 685.412L243.893 611.92L265.913 600.139L266.791 698.281L183.028 746.725Z" fill="white"/>
<path fill-rule="evenodd" clip-rule="evenodd" d="M266.602 598.972C267.002 599.21 267.248 599.641 267.253 600.108L268.13 698.25C268.134 698.733 267.88 699.18 267.464 699.42L183.701 747.864C183.29 748.102 182.785 748.102 182.374 747.864C181.963 747.626 181.709 747.186 181.708 746.71L181.641 722.012C181.639 721.54 181.886 721.102 182.29 720.86L242.783 684.635L242.573 611.905C242.571 611.41 242.842 610.954 243.277 610.721L265.298 598.941C265.708 598.721 266.203 598.733 266.602 598.972ZM245.235 612.702L245.444 685.389C245.446 685.861 245.199 686.299 244.795 686.541L184.302 722.766L184.362 744.399L265.463 697.494L264.613 602.335L245.235 612.702Z" fill="#FDB900"/>
<path d="M200.883 565.107L225.921 550.683L287.335 589.815L287.672 708.116L266.799 698.26L265.922 600.118L200.883 565.107Z" fill="white"/>
<path fill-rule="evenodd" clip-rule="evenodd" d="M225.269 549.532C225.697 549.285 226.226 549.297 226.643 549.562L288.057 588.695C288.44 588.939 288.673 589.363 288.674 589.819L289.012 708.12C289.013 708.578 288.781 709.005 288.396 709.251C288.012 709.497 287.529 709.528 287.116 709.333L266.243 699.477C265.781 699.259 265.484 698.794 265.479 698.28L264.609 600.93L200.264 566.293C199.838 566.064 199.57 565.62 199.563 565.134C199.556 564.649 199.812 564.197 200.231 563.956L225.269 549.532ZM203.635 565.075L266.559 598.948C266.988 599.179 267.257 599.626 267.261 600.114L268.131 697.416L286.346 706.017L286.017 590.559L225.896 552.251L203.635 565.075Z" fill="#FDB900"/>
<path d="M182.094 429.347L287.047 490.145L287.124 515.465L182.2 455.863L182.094 429.347Z" fill="white"/>
<path fill-rule="evenodd" clip-rule="evenodd" d="M181.436 428.172C181.847 427.932 182.355 427.931 182.768 428.17L287.721 488.968C288.132 489.206 288.385 489.646 288.387 490.122L288.464 515.442C288.465 515.918 288.215 516.359 287.806 516.6C287.397 516.84 286.892 516.844 286.479 516.61L181.555 457.007C181.139 456.771 180.881 456.329 180.88 455.849L180.773 429.333C180.772 428.855 181.024 428.412 181.436 428.172ZM183.442 431.646L183.536 455.063L285.797 513.152L285.729 490.899L183.442 431.646Z" fill="#FDB900"/>
<path d="M77.9036 614.88L77.5469 491.369L182.086 429.347L182.192 455.863L97.1762 504.258L96.8484 600.641L77.9036 614.88Z" fill="white"/>
<path fill-rule="evenodd" clip-rule="evenodd" d="M182.752 428.166C183.166 428.403 183.423 428.844 183.425 429.323L183.531 455.838C183.533 456.322 183.275 456.768 182.857 457.007L98.513 505.02L98.1878 600.626C98.1864 601.046 97.9889 601.441 97.6546 601.692L78.7097 615.932C78.3072 616.234 77.7692 616.283 77.3194 616.057C76.8696 615.832 76.5847 615.371 76.5833 614.865L76.2266 491.355C76.2252 490.88 76.474 490.441 76.8803 490.2L181.419 428.177C181.829 427.934 182.338 427.93 182.752 428.166ZM78.8885 492.112L79.2353 612.199L95.5304 599.951L95.8559 504.235C95.8575 503.755 96.1149 503.313 96.5303 503.077L180.868 455.067L180.775 431.663L78.8885 492.112Z" fill="#FDB900"/>
<path d="M139.494 649.333L77.9062 614.857L96.8511 600.617L202.373 661.96L139.648 697.962L118.63 709.859L183.033 746.707L266.795 698.263L287.668 708.119L182.513 771.406L78.1858 711.181L161.341 661.561L139.494 649.333Z" fill="white"/>
<path fill-rule="evenodd" clip-rule="evenodd" d="M96.0641 599.568C96.4904 599.248 97.0658 599.214 97.5266 599.482L203.049 660.824C203.461 661.064 203.714 661.506 203.713 661.985C203.711 662.463 203.456 662.904 203.042 663.141L140.317 699.144L140.31 699.148L121.338 709.887L183.039 745.189L266.142 697.127C266.518 696.909 266.977 696.89 267.371 697.075L288.244 706.931C288.688 707.141 288.982 707.581 289.006 708.074C289.031 708.567 288.783 709.033 288.361 709.287L183.205 772.573C182.792 772.822 182.277 772.827 181.86 772.586L77.5329 712.361C77.1231 712.125 76.869 711.687 76.8656 711.212C76.8622 710.737 77.1099 710.296 77.5164 710.054L158.684 661.619L138.856 650.522L138.856 650.522L77.2686 616.046C76.8749 615.825 76.6191 615.419 76.5889 614.968C76.5588 614.516 76.7584 614.079 77.1192 613.808L96.0641 599.568ZM96.9544 602.237L80.3547 614.714L140.151 648.187L140.151 648.187L161.997 660.415C162.413 660.648 162.673 661.086 162.68 661.564C162.687 662.042 162.438 662.487 162.029 662.731L80.8319 711.183L182.508 769.878L284.853 708.283L266.867 699.791L183.706 747.887C183.297 748.123 182.795 748.124 182.385 747.89L117.982 711.042C117.566 710.804 117.309 710.359 117.31 709.877C117.311 709.396 117.57 708.953 117.987 708.716L138.998 696.823L139.005 696.819L199.715 661.973L96.9544 602.237Z" fill="#FDB900"/>
<path d="M97.1875 504.257L182.203 455.861L287.128 515.464L225.926 550.708L200.888 565.133L265.927 600.144L243.906 611.924L160.424 563.966L243.627 514.346L223.776 502.818L182.271 478.713L120.471 514.706L97.1875 504.257Z" fill="white"/>
<path fill-rule="evenodd" clip-rule="evenodd" d="M181.557 454.68C181.963 454.449 182.461 454.448 182.867 454.679L287.792 514.282C288.208 514.518 288.466 514.961 288.467 515.441C288.468 515.921 288.213 516.366 287.798 516.604L226.597 551.849L203.64 565.074L266.564 598.947C266.997 599.18 267.267 599.633 267.266 600.127C267.265 600.62 266.995 601.073 266.561 601.304L244.541 613.085C244.138 613.301 243.652 613.293 243.256 613.065L159.773 565.107C159.362 564.871 159.107 564.434 159.103 563.958C159.1 563.483 159.348 563.041 159.755 562.798L241.005 514.343L223.12 503.956L182.281 480.238L121.147 515.843C120.778 516.058 120.328 516.082 119.938 515.907L96.6547 505.458C96.1966 505.253 95.8926 504.805 95.8687 504.302C95.8448 503.798 96.105 503.324 96.5415 503.075L181.557 454.68ZM182.213 457.378L100.143 504.097L120.402 513.188L181.613 477.538C182.025 477.298 182.533 477.298 182.946 477.537L244.302 513.17C244.711 513.408 244.963 513.845 244.966 514.32C244.969 514.794 244.721 515.234 244.315 515.476L163.075 563.926L243.939 610.379L263.113 600.121L200.269 566.292C199.843 566.062 199.574 565.619 199.567 565.133C199.56 564.647 199.816 564.196 200.236 563.955L225.274 549.53L284.449 515.453L182.213 457.378Z" fill="#FDB900"/>
<path d="M118.633 709.859L140.424 697.564L182.968 722.008L183.036 746.707L118.633 709.859Z" fill="white"/>
<path fill-rule="evenodd" clip-rule="evenodd" d="M139.782 696.407C140.19 696.177 140.688 696.179 141.094 696.412L183.638 720.857C184.051 721.094 184.306 721.535 184.308 722.013L184.375 746.711C184.376 747.188 184.125 747.629 183.715 747.869C183.305 748.109 182.799 748.112 182.387 747.876L117.984 711.028C117.568 710.79 117.311 710.344 117.313 709.863C117.314 709.381 117.573 708.937 117.991 708.702L139.782 696.407ZM121.344 709.875L181.709 744.413L181.65 722.793L140.428 699.108L121.344 709.875Z" fill="#FDB900"/>
<path d="M78.1865 711.204L78.1094 684.669L139.494 649.356L161.341 661.584L78.1865 711.204Z" fill="white"/>
<path fill-rule="evenodd" clip-rule="evenodd" d="M138.843 648.178C139.248 647.945 139.744 647.942 140.151 648.17L161.998 660.398C162.414 660.631 162.674 661.069 162.681 661.547C162.687 662.025 162.439 662.47 162.03 662.714L78.8751 712.334C78.4647 712.579 77.9551 712.584 77.5399 712.348C77.1247 712.111 76.8676 711.669 76.8662 711.189L76.7891 684.654C76.7877 684.174 77.0432 683.729 77.4582 683.49L138.843 648.178ZM139.513 650.872L79.451 685.424L79.5191 708.842L158.684 661.602L139.513 650.872Z" fill="#FDB900"/>
<path d="M160.43 563.942L160.68 538.66L223.782 502.794L243.633 514.322L160.43 563.942Z" fill="white"/>
<path fill-rule="evenodd" clip-rule="evenodd" d="M223.113 501.639C223.523 501.405 224.025 501.408 224.433 501.645L244.284 513.172C244.693 513.41 244.946 513.847 244.949 514.322C244.951 514.796 244.704 515.236 244.298 515.479L161.095 565.099C160.681 565.345 160.168 565.348 159.752 565.107C159.336 564.867 159.081 564.419 159.086 563.936L159.337 538.655C159.341 538.178 159.599 537.74 160.012 537.505L223.113 501.639ZM161.989 539.452L161.769 561.589L240.988 514.345L223.761 504.341L161.989 539.452Z" fill="#FDB900"/>
<path d="M96.8594 600.598L97.1872 504.215L120.471 514.664L120.683 590.295L202.304 636.095L202.382 661.94L96.8594 600.598Z" fill="white"/>
<path fill-rule="evenodd" clip-rule="evenodd" d="M96.4594 503.127C96.8372 502.882 97.3127 502.845 97.7234 503.03L121.007 513.479C121.485 513.693 121.793 514.169 121.794 514.695L122.004 589.544L202.947 634.963C203.366 635.198 203.627 635.643 203.628 636.126L203.705 661.971C203.707 662.449 203.454 662.892 203.042 663.131C202.63 663.371 202.122 663.371 201.71 663.131L96.1873 601.789C95.7751 601.549 95.5218 601.106 95.5234 600.628L95.8512 504.245C95.8528 503.793 96.0816 503.373 96.4594 503.127ZM98.504 506.307L98.1858 599.863L201.039 659.654L200.971 636.915L120.028 591.496C119.609 591.261 119.348 590.816 119.347 590.333L119.137 515.566L98.504 506.307Z" fill="#FDB900"/>
<path d="M353.656 643.182H389.229C390.443 646.179 392.282 648.892 394.627 651.146C399.85 656.287 407.032 658.858 416.172 658.858C430.057 658.858 437 654.835 437 646.788C437.011 645.554 436.669 644.342 436.012 643.292C435.138 642.056 433.96 641.059 432.589 640.392C430.996 639.514 429.404 638.746 427.939 638.103C425.829 637.262 423.657 636.581 421.442 636.065C418.592 635.328 416.299 634.811 414.579 634.498C412.86 634.184 410.184 633.604 406.506 632.805C402.828 632.005 400.137 631.441 398.544 631.112C372.738 625.656 359.835 613.199 359.835 593.74C359.835 583.456 364.532 574.657 373.927 567.341C383.322 560.026 396.182 556.368 412.509 556.368C434.388 556.368 450.795 563.041 461.729 576.386C466.459 582.138 469.733 588.913 471.283 596.154H437C435.952 593.873 434.452 591.822 432.589 590.119C427.525 586.106 420.832 584.099 412.509 584.099C406.618 584.099 402.302 585.024 399.516 586.874C398.28 587.568 397.248 588.565 396.52 589.769C395.792 590.972 395.392 592.34 395.36 593.74C395.359 594.697 395.565 595.642 395.965 596.515C396.448 597.476 397.164 598.305 398.051 598.929C398.995 599.625 399.979 600.269 400.997 600.857C402.314 601.566 403.708 602.129 405.153 602.534L409.93 604.102C411.734 604.699 413.574 605.186 415.439 605.56L421.315 606.767C422.907 607.08 425.073 607.519 427.684 608.083C430.296 608.648 432.461 609.087 434.054 609.416C459.69 615.049 472.509 627.506 472.509 646.788C472.509 657.552 467.45 666.874 457.334 674.754C447.217 682.634 433.496 686.573 416.172 686.573C392.987 686.573 375.843 679.342 364.739 664.878C359.701 658.39 355.942 651.032 353.656 643.182V643.182Z" fill="white"/>
<path d="M482.242 588.929V560.006H498.166V533.467H532.544V560.006H567.735V588.929H532.544V654.047H569.168V682.969H498.166V588.913L482.242 588.929Z" fill="white"/>
<path d="M599.193 668.617C588.174 656.64 582.664 640.928 582.664 621.479C582.664 602.03 588.174 586.318 599.193 574.341C604.286 568.58 610.599 563.986 617.688 560.883C624.777 557.779 632.47 556.241 640.227 556.376C650.913 556.295 661.328 559.684 669.861 566.017C673.409 568.861 676.614 572.096 679.415 575.658H680.625V559.982H714.908V682.945H680.625V667.269H679.399C676.598 670.831 673.393 674.065 669.845 676.91C661.312 683.243 650.897 686.632 640.211 686.55C632.459 686.687 624.771 685.153 617.685 682.055C610.599 678.957 604.287 674.37 599.193 668.617V668.617ZM626.756 594.939C621.034 601.367 618.173 610.208 618.173 621.463C618.173 632.719 621.034 641.56 626.756 647.987C629.462 651.113 632.844 653.603 636.655 655.274C640.466 656.944 644.608 657.754 648.778 657.644C658.247 657.644 665.922 654.472 671.803 648.128C677.684 641.785 680.625 632.902 680.625 621.479C680.625 610.067 677.684 601.184 671.803 594.83C665.922 588.476 658.247 585.304 648.778 585.314C644.609 585.202 640.468 586.009 636.657 587.677C632.847 589.346 629.463 591.832 626.756 594.955V594.939Z" fill="white"/>
<path d="M752.279 668.619C741.26 656.642 735.75 640.93 735.75 621.481C735.75 602.032 741.26 586.319 752.279 574.343C757.371 568.58 763.683 563.985 770.773 560.882C777.862 557.778 785.556 556.241 793.313 556.378C803.999 556.299 814.413 559.687 822.947 566.019C826.495 568.863 829.7 572.098 832.501 575.66H833.727V514.178H868.01V682.962H833.727V667.286H832.501C829.7 670.848 826.495 674.083 822.947 676.927C814.413 683.259 803.999 686.647 793.313 686.568C785.557 686.707 777.864 685.172 770.775 682.072C763.685 678.971 757.372 674.379 752.279 668.619V668.619ZM779.842 594.941C774.11 601.368 771.249 610.21 771.259 621.465C771.27 632.721 774.131 641.562 779.842 647.989C782.55 651.115 785.936 653.603 789.75 655.272C793.563 656.94 797.708 657.746 801.88 657.63C811.36 657.63 819.035 654.458 824.905 648.114C830.776 641.771 833.716 632.888 833.727 621.465C833.727 610.053 830.786 601.17 824.905 594.816C819.024 588.462 811.349 585.29 801.88 585.3C797.707 585.186 793.561 585.995 789.747 587.666C785.934 589.337 782.549 591.828 779.842 594.957V594.941Z" fill="white"/>
<path d="M907.071 667.652C900.774 661.689 895.796 654.508 892.45 646.561C889.104 638.614 887.463 630.072 887.629 621.471C887.465 612.869 889.109 604.326 892.457 596.379C895.806 588.432 900.787 581.252 907.087 575.289C920.081 562.675 936.046 556.368 954.985 556.368C974.252 556.368 990.091 562.639 1002.5 575.179C1014.91 587.72 1021.11 603.151 1021.11 621.471V628.697H923.122C924.336 636.562 928.22 643.789 934.141 649.202C936.879 651.886 940.128 654.013 943.702 655.46C947.276 656.907 951.104 657.647 954.969 657.635C963.024 657.833 970.901 655.28 977.262 650.409C979.67 648.382 981.674 645.932 983.169 643.182H1019.9C1017.27 651.122 1013.11 658.492 1007.66 664.893C994.517 679.357 976.954 686.584 954.969 686.573C936.02 686.573 920.054 680.266 907.071 667.652ZM924.348 608.209H984.363C983.064 601.82 979.559 596.071 974.443 591.937C968.988 587.467 962.064 585.109 954.969 585.306C947.868 585.123 940.933 587.429 935.399 591.812C930.087 596.026 926.228 601.753 924.348 608.209V608.209Z" fill="white"/>
<path d="M1041.92 682.965V560.002H1076.22V578.077H1077.45C1078.88 574.27 1081.13 570.814 1084.06 567.95C1087.28 564.571 1091.2 561.902 1095.54 560.116C1099.89 558.331 1104.57 557.469 1109.28 557.588H1123.98V590.131H1105.6C1096.3 590.131 1089.08 592.582 1083.93 597.484C1078.78 602.385 1076.21 609.178 1076.22 617.862V682.965H1041.92Z" fill="white"/>
</svg>
