<svg width="1200" height="1200" viewBox="0 0 1200 1200" fill="none" xmlns="http://www.w3.org/2000/svg">
<rect width="1200" height="1200" fill="black"/>
<path d="M183.028 746.726L182.961 722.027L244.105 685.412L243.893 611.92L265.913 600.14L266.791 698.282L183.028 746.726Z" fill="#FDB900"/>
<path fill-rule="evenodd" clip-rule="evenodd" d="M266.602 598.972C267.002 599.21 267.248 599.641 267.253 600.108L268.13 698.25C268.134 698.733 267.88 699.18 267.464 699.42L183.701 747.864C183.29 748.102 182.785 748.102 182.374 747.864C181.963 747.626 181.709 747.186 181.708 746.71L181.641 722.012C181.639 721.54 181.886 721.102 182.29 720.86L242.783 684.635L242.573 611.905C242.571 611.41 242.842 610.954 243.277 610.721L265.298 598.941C265.708 598.721 266.203 598.733 266.602 598.972ZM245.235 612.702L245.444 685.389C245.446 685.861 245.199 686.299 244.795 686.541L184.302 722.766L184.362 744.399L265.463 697.494L264.613 602.335L245.235 612.702Z" fill="black"/>
<path d="M200.883 565.108L225.921 550.684L287.335 589.816L287.672 708.117L266.799 698.261L265.922 600.119L200.883 565.108Z" fill="#FDB900"/>
<path fill-rule="evenodd" clip-rule="evenodd" d="M225.269 549.532C225.697 549.285 226.226 549.297 226.643 549.562L288.057 588.695C288.44 588.939 288.673 589.363 288.674 589.819L289.012 708.12C289.013 708.578 288.781 709.005 288.396 709.251C288.012 709.497 287.529 709.528 287.116 709.333L266.243 699.477C265.781 699.259 265.484 698.794 265.479 698.28L264.609 600.93L200.264 566.293C199.838 566.064 199.57 565.62 199.563 565.134C199.556 564.649 199.812 564.197 200.231 563.956L225.269 549.532ZM203.635 565.075L266.559 598.948C266.988 599.179 267.257 599.626 267.261 600.114L268.131 697.416L286.346 706.017L286.017 590.559L225.896 552.251L203.635 565.075Z" fill="black"/>
<path d="M182.094 429.347L287.047 490.145L287.124 515.465L182.2 455.863L182.094 429.347Z" fill="#FDB900"/>
<path fill-rule="evenodd" clip-rule="evenodd" d="M181.436 428.173C181.847 427.933 182.355 427.932 182.768 428.171L287.721 488.969C288.132 489.207 288.385 489.646 288.387 490.122L288.464 515.443C288.465 515.919 288.215 516.36 287.806 516.6C287.397 516.84 286.892 516.844 286.479 516.61L181.555 457.008C181.139 456.771 180.881 456.33 180.88 455.85L180.773 429.334C180.772 428.856 181.024 428.413 181.436 428.173ZM183.442 431.647L183.536 455.063L285.797 513.152L285.729 490.9L183.442 431.647Z" fill="black"/>
<path d="M77.9036 614.88L77.5469 491.369L182.086 429.347L182.192 455.863L97.1762 504.258L96.8484 600.641L77.9036 614.88Z" fill="#FDB900"/>
<path fill-rule="evenodd" clip-rule="evenodd" d="M182.752 428.167C183.166 428.403 183.423 428.844 183.425 429.323L183.531 455.839C183.533 456.322 183.275 456.769 182.857 457.007L98.513 505.02L98.1878 600.627C98.1864 601.047 97.9889 601.441 97.6546 601.692L78.7097 615.932C78.3072 616.235 77.7692 616.283 77.3194 616.058C76.8696 615.832 76.5847 615.371 76.5833 614.866L76.2266 491.355C76.2252 490.881 76.474 490.442 76.8803 490.201L181.419 428.178C181.829 427.934 182.338 427.93 182.752 428.167ZM78.8885 492.113L79.2353 612.199L95.5304 599.952L95.8559 504.235C95.8575 503.756 96.1149 503.314 96.5303 503.077L180.868 455.067L180.775 431.664L78.8885 492.113Z" fill="black"/>
<path d="M139.494 649.334L77.9062 614.858L96.8511 600.618L202.373 661.961L139.648 697.963L118.63 709.86L183.033 746.708L266.795 698.264L287.668 708.12L182.513 771.407L78.1858 711.182L161.341 661.562L139.494 649.334Z" fill="#FDB900"/>
<path fill-rule="evenodd" clip-rule="evenodd" d="M96.0641 599.569C96.4904 599.249 97.0658 599.214 97.5266 599.482L203.049 660.825C203.461 661.064 203.714 661.507 203.713 661.985C203.711 662.463 203.456 662.904 203.042 663.142L140.317 699.144L140.31 699.148L121.338 709.887L183.039 745.189L266.142 697.127C266.518 696.909 266.977 696.89 267.371 697.076L288.244 706.932C288.688 707.142 288.982 707.581 289.006 708.074C289.031 708.567 288.783 709.034 288.361 709.288L183.205 772.574C182.792 772.823 182.277 772.827 181.86 772.586L77.5329 712.362C77.1231 712.125 76.869 711.688 76.8656 711.213C76.8622 710.738 77.1099 710.297 77.5164 710.054L158.684 661.62L138.856 650.523L138.856 650.523L77.2686 616.046C76.8749 615.826 76.6191 615.42 76.5889 614.968C76.5588 614.516 76.7584 614.08 77.1192 613.809L96.0641 599.569ZM96.9544 602.237L80.3547 614.714L140.151 648.188L140.151 648.188L161.997 660.415C162.413 660.648 162.673 661.086 162.68 661.564C162.687 662.042 162.438 662.488 162.029 662.732L80.8319 711.184L182.508 769.878L284.853 708.284L266.867 699.791L183.706 747.887C183.297 748.124 182.795 748.125 182.385 747.89L117.982 711.042C117.566 710.804 117.309 710.359 117.31 709.878C117.311 709.397 117.57 708.953 117.987 708.717L138.998 696.824L139.005 696.82L199.715 661.974L96.9544 602.237Z" fill="black"/>
<path d="M97.1875 504.258L182.203 455.862L287.128 515.465L225.926 550.709L200.888 565.134L265.927 600.145L243.906 611.925L160.424 563.967L243.627 514.347L223.776 502.819L182.271 478.714L120.471 514.707L97.1875 504.258Z" fill="#FDB900"/>
<path fill-rule="evenodd" clip-rule="evenodd" d="M181.557 454.68C181.963 454.449 182.461 454.449 182.867 454.68L287.792 514.282C288.208 514.519 288.466 514.961 288.467 515.442C288.468 515.922 288.213 516.366 287.798 516.605L226.597 551.849L203.64 565.075L266.564 598.948C266.997 599.18 267.267 599.634 267.266 600.127C267.265 600.62 266.995 601.073 266.561 601.305L244.541 613.085C244.138 613.301 243.652 613.294 243.256 613.066L159.773 565.108C159.362 564.872 159.107 564.434 159.103 563.959C159.1 563.483 159.348 563.042 159.755 562.799L241.005 514.343L223.12 503.957L182.281 480.239L121.147 515.844C120.778 516.059 120.328 516.083 119.938 515.908L96.6547 505.459C96.1966 505.253 95.8926 504.806 95.8687 504.302C95.8448 503.799 96.105 503.324 96.5415 503.076L181.557 454.68ZM182.213 457.379L100.143 504.097L120.402 513.189L181.613 477.539C182.025 477.299 182.533 477.298 182.946 477.538L244.302 513.171C244.711 513.408 244.963 513.846 244.966 514.32C244.969 514.794 244.721 515.235 244.315 515.477L163.075 563.926L243.939 610.38L263.113 600.122L200.269 566.292C199.843 566.063 199.574 565.619 199.567 565.134C199.56 564.648 199.816 564.197 200.236 563.955L225.274 549.531L284.449 515.454L182.213 457.379Z" fill="black"/>
<path d="M118.633 709.859L140.424 697.564L182.968 722.009L183.036 746.707L118.633 709.859Z" fill="#FDB900"/>
<path fill-rule="evenodd" clip-rule="evenodd" d="M139.782 696.407C140.19 696.177 140.688 696.179 141.094 696.413L183.638 720.857C184.051 721.094 184.306 721.535 184.308 722.013L184.375 746.712C184.376 747.188 184.125 747.63 183.715 747.87C183.305 748.11 182.799 748.112 182.387 747.877L117.984 711.028C117.568 710.79 117.311 710.345 117.313 709.863C117.314 709.381 117.573 708.938 117.991 708.702L139.782 696.407ZM121.344 709.875L181.709 744.413L181.65 722.793L140.428 699.108L121.344 709.875Z" fill="black"/>
<path d="M78.1865 711.204L78.1094 684.669L139.494 649.356L161.341 661.584L78.1865 711.204Z" fill="#FDB900"/>
<path fill-rule="evenodd" clip-rule="evenodd" d="M138.843 648.179C139.248 647.946 139.744 647.943 140.151 648.171L161.998 660.398C162.414 660.631 162.674 661.069 162.681 661.547C162.687 662.025 162.439 662.471 162.03 662.715L78.8751 712.335C78.4647 712.58 77.9551 712.585 77.5399 712.348C77.1247 712.112 76.8676 711.67 76.8662 711.19L76.7891 684.655C76.7877 684.174 77.0432 683.73 77.4582 683.491L138.843 648.179ZM139.513 650.873L79.451 685.424L79.5191 708.842L158.684 661.603L139.513 650.873Z" fill="black"/>
<path d="M160.43 563.942L160.68 538.66L223.782 502.794L243.633 514.322L160.43 563.942Z" fill="#FDB900"/>
<path fill-rule="evenodd" clip-rule="evenodd" d="M223.113 501.639C223.523 501.406 224.025 501.408 224.433 501.645L244.284 513.173C244.693 513.41 244.946 513.848 244.949 514.322C244.951 514.797 244.704 515.237 244.298 515.479L161.095 565.099C160.681 565.345 160.168 565.349 159.752 565.108C159.336 564.867 159.081 564.419 159.086 563.937L159.337 538.655C159.341 538.178 159.599 537.74 160.012 537.505L223.113 501.639ZM161.989 539.452L161.769 561.589L240.988 514.345L223.761 504.341L161.989 539.452Z" fill="black"/>
<path d="M96.8594 600.598L97.1872 504.216L120.471 514.665L120.683 590.295L202.304 636.096L202.382 661.941L96.8594 600.598Z" fill="#FDB900"/>
<path fill-rule="evenodd" clip-rule="evenodd" d="M96.4594 503.128C96.8372 502.883 97.3127 502.846 97.7234 503.03L121.007 513.479C121.485 513.694 121.793 514.17 121.794 514.695L122.004 589.544L202.947 634.963C203.366 635.199 203.627 635.643 203.628 636.126L203.705 661.971C203.707 662.45 203.454 662.892 203.042 663.132C202.63 663.371 202.122 663.371 201.71 663.132L96.1873 601.79C95.7751 601.55 95.5218 601.107 95.5234 600.628L95.8512 504.246C95.8528 503.794 96.0816 503.373 96.4594 503.128ZM98.504 506.307L98.1858 599.864L201.039 659.654L200.971 636.916L120.028 591.496C119.609 591.261 119.348 590.816 119.347 590.334L119.137 515.567L98.504 506.307Z" fill="black"/>
<path d="M353.656 643.183H389.229C390.443 646.18 392.282 648.893 394.627 651.147C399.85 656.288 407.032 658.859 416.172 658.859C430.057 658.859 437 654.836 437 646.789C437.011 645.555 436.669 644.343 436.012 643.293C435.138 642.057 433.96 641.059 432.589 640.393C430.996 639.515 429.404 638.747 427.939 638.104C425.829 637.263 423.657 636.582 421.442 636.066C418.592 635.329 416.299 634.812 414.579 634.499C412.86 634.185 410.184 633.605 406.506 632.806C402.828 632.006 400.137 631.442 398.544 631.113C372.738 625.657 359.835 613.2 359.835 593.741C359.835 583.457 364.532 574.658 373.927 567.342C383.322 560.027 396.182 556.369 412.509 556.369C434.388 556.369 450.795 563.042 461.729 576.387C466.459 582.139 469.733 588.914 471.283 596.155H437C435.952 593.874 434.452 591.823 432.589 590.12C427.525 586.107 420.832 584.1 412.509 584.1C406.618 584.1 402.302 585.025 399.516 586.875C398.28 587.569 397.248 588.566 396.52 589.77C395.792 590.973 395.392 592.341 395.36 593.741C395.359 594.698 395.565 595.643 395.965 596.516C396.448 597.477 397.164 598.306 398.051 598.93C398.995 599.626 399.979 600.27 400.997 600.858C402.314 601.567 403.708 602.13 405.153 602.535L409.93 604.103C411.734 604.7 413.574 605.187 415.439 605.561L421.315 606.768C422.907 607.081 425.073 607.52 427.684 608.084C430.296 608.649 432.461 609.088 434.054 609.417C459.69 615.05 472.509 627.507 472.509 646.789C472.509 657.553 467.45 666.875 457.334 674.755C447.217 682.635 433.496 686.574 416.172 686.574C392.987 686.574 375.843 679.343 364.739 664.879C359.701 658.391 355.942 651.033 353.656 643.183V643.183Z" fill="#FDB900"/>
<path d="M482.242 588.929V560.006H498.166V533.467H532.544V560.006H567.735V588.929H532.544V654.047H569.168V682.969H498.166V588.913L482.242 588.929Z" fill="#FDB900"/>
<path d="M599.193 668.618C588.174 656.641 582.664 640.929 582.664 621.48C582.664 602.031 588.174 586.319 599.193 574.342C604.286 568.581 610.599 563.987 617.688 560.884C624.777 557.78 632.47 556.242 640.227 556.377C650.913 556.296 661.328 559.685 669.861 566.018C673.409 568.862 676.614 572.097 679.415 575.659H680.625V559.983H714.908V682.946H680.625V667.27H679.399C676.598 670.832 673.393 674.066 669.845 676.911C661.312 683.244 650.897 686.633 640.211 686.551C632.459 686.688 624.771 685.154 617.685 682.056C610.599 678.958 604.287 674.371 599.193 668.618V668.618ZM626.756 594.94C621.034 601.368 618.173 610.209 618.173 621.464C618.173 632.72 621.034 641.561 626.756 647.988C629.462 651.114 632.844 653.604 636.655 655.274C640.466 656.945 644.608 657.755 648.778 657.645C658.247 657.645 665.922 654.473 671.803 648.129C677.684 641.786 680.625 632.903 680.625 621.48C680.625 610.068 677.684 601.185 671.803 594.831C665.922 588.477 658.247 585.305 648.778 585.315C644.609 585.203 640.468 586.01 636.657 587.678C632.847 589.347 629.463 591.833 626.756 594.956V594.94Z" fill="#FDB900"/>
<path d="M752.279 668.619C741.26 656.643 735.75 640.93 735.75 621.481C735.75 602.033 741.26 586.32 752.279 574.343C757.371 568.581 763.683 563.986 770.773 560.882C777.862 557.778 785.556 556.241 793.313 556.379C803.999 556.3 814.413 559.688 822.947 566.019C826.495 568.864 829.7 572.098 832.501 575.66H833.727V514.179H868.01V682.963H833.727V667.287H832.501C829.7 670.849 826.495 674.083 822.947 676.928C814.413 683.259 803.999 686.647 793.313 686.568C785.557 686.708 777.864 685.173 770.775 682.072C763.685 678.971 757.372 674.379 752.279 668.619V668.619ZM779.842 594.942C774.11 601.369 771.249 610.21 771.259 621.466C771.27 632.721 774.131 641.562 779.842 647.99C782.55 651.115 785.936 653.604 789.75 655.272C793.563 656.941 797.708 657.746 801.88 657.63C811.36 657.63 819.035 654.459 824.905 648.115C830.776 641.771 833.716 632.888 833.727 621.466C833.727 610.053 830.786 601.17 824.905 594.816C819.024 588.462 811.349 585.291 801.88 585.301C797.707 585.187 793.561 585.995 789.747 587.666C785.934 589.337 782.549 591.829 779.842 594.957V594.942Z" fill="#FDB900"/>
<path d="M907.071 667.653C900.774 661.69 895.796 654.509 892.45 646.562C889.104 638.615 887.463 630.073 887.629 621.472C887.465 612.87 889.109 604.327 892.457 596.38C895.806 588.433 900.787 581.253 907.087 575.29C920.081 562.676 936.046 556.369 954.985 556.369C974.252 556.369 990.091 562.64 1002.5 575.18C1014.91 587.721 1021.11 603.152 1021.11 621.472V628.698H923.122C924.336 636.563 928.22 643.79 934.141 649.203C936.879 651.887 940.128 654.014 943.702 655.461C947.276 656.908 951.104 657.647 954.969 657.636C963.024 657.834 970.901 655.281 977.262 650.41C979.67 648.383 981.674 645.933 983.169 643.183H1019.9C1017.27 651.123 1013.11 658.493 1007.66 664.894C994.517 679.358 976.954 686.585 954.969 686.574C936.02 686.574 920.054 680.267 907.071 667.653ZM924.348 608.21H984.363C983.064 601.821 979.559 596.072 974.443 591.938C968.988 587.468 962.064 585.11 954.969 585.307C947.868 585.124 940.933 587.43 935.399 591.813C930.087 596.027 926.228 601.754 924.348 608.21V608.21Z" fill="#FDB900"/>
<path d="M1041.92 682.965V560.002H1076.22V578.077H1077.45C1078.88 574.27 1081.13 570.814 1084.06 567.95C1087.28 564.571 1091.2 561.902 1095.54 560.116C1099.89 558.331 1104.57 557.469 1109.28 557.588H1123.98V590.131H1105.6C1096.3 590.131 1089.08 592.582 1083.93 597.484C1078.78 602.385 1076.21 609.178 1076.22 617.862V682.965H1041.92Z" fill="#FDB900"/>
</svg>
