<svg width="800" height="800" viewBox="0 0 800 800" fill="none" xmlns="http://www.w3.org/2000/svg">
<path d="M0 400C0 179.086 179.086 0 400 0C620.914 0 800 179.086 800 400C800 620.914 620.914 800 400 800C179.086 800 0 620.914 0 400Z" fill="#161A67"/>
<path d="M715.14 412.723C689.881 412.723 667.347 403.246 648.107 384.576C633.22 370.095 622.238 352.32 611.622 335.155C583.8 290.128 573.346 285.166 557.605 285.166C541.864 285.166 531.41 290.087 503.588 335.155C492.972 352.32 481.99 370.095 467.103 384.576C447.863 403.246 425.329 412.723 400.07 412.723C374.811 412.723 352.277 403.246 333.037 384.576C318.15 370.095 307.168 352.32 296.552 335.155C268.73 290.128 258.276 285.166 242.535 285.166C226.794 285.166 216.34 290.087 188.518 335.155C177.902 352.32 166.92 370.095 152.033 384.576C132.793 403.246 110.259 412.723 85 412.723V354.557C100.741 354.557 111.195 349.636 139.017 304.568C149.633 287.403 160.615 269.628 175.502 255.147C194.742 236.477 217.276 227 242.535 227C267.794 227 290.328 236.477 309.568 255.147C324.455 269.628 335.437 287.403 346.053 304.568C373.875 349.595 384.329 354.557 400.07 354.557C415.811 354.557 426.265 349.636 454.087 304.568C464.703 287.403 475.685 269.628 490.572 255.147C509.812 236.477 532.346 227 557.605 227C582.864 227 605.398 236.477 624.638 255.147C639.525 269.628 650.507 287.403 661.123 304.568C688.945 349.595 699.399 354.557 715.14 354.557V412.723Z" fill="#03E1D0"/>
<path d="M715.14 574C689.881 574 667.347 564.522 648.107 545.853C633.22 531.372 622.238 513.597 611.622 496.432C583.8 451.405 573.346 446.442 557.605 446.442C541.864 446.442 531.41 451.364 503.588 496.432C492.972 513.597 481.99 531.372 467.103 545.853C447.863 564.522 425.329 574 400.07 574C374.811 574 352.277 564.522 333.037 545.853C318.15 531.372 307.168 513.597 296.552 496.432C268.73 451.405 258.276 446.442 242.535 446.442C226.794 446.442 216.34 451.364 188.518 496.432C177.902 513.597 166.92 531.372 152.033 545.853C132.793 564.522 110.259 574 85 574V515.834C100.741 515.834 111.195 510.913 139.017 465.844C149.633 448.68 160.615 430.904 175.502 416.424C194.742 397.754 217.276 388.277 242.535 388.277C267.794 388.277 290.328 397.754 309.568 416.424C324.455 430.904 335.437 448.68 346.053 465.844C373.875 510.872 384.329 515.834 400.07 515.834C415.811 515.834 426.265 510.913 454.087 465.844C464.703 448.68 475.685 430.904 490.572 416.424C509.812 397.754 532.346 388.277 557.605 388.277C582.864 388.277 605.398 397.754 624.638 416.424C639.525 430.904 650.507 448.68 661.123 465.844C688.945 510.872 699.399 515.834 715.14 515.834V574Z" fill="#03E1D0"/>
</svg>